/* XPM */
static char *checker_west_641689607237[] = {
/* columns rows colors chars-per-pixel */
"64 64 110 2 ",
"   c gray37",
".  c DimGray",
"X  c #9D9D9D",
"o  c #A7A7A7",
"O  c gray48",
"+  c #848484",
"@  c gray68",
"#  c #797979",
"$  c gray53",
"%  c gray67",
"&  c LightGray",
"*  c white",
"=  c #C1C1C1",
"-  c #C5C5C5",
";  c #BBBBBB",
":  c gray79",
">  c #DADADA",
",  c #ACACAC",
"<  c #F1F1F1",
"1  c #E4E4E4",
"2  c #ECECEC",
"3  c #E7E7E7",
"4  c #7C7C7C",
"5  c gray46",
"6  c #717171",
"7  c #FDFDFD",
"8  c gray99",
"9  c #747474",
"0  c #FEFEFE",
"q  c gray55",
"w  c gray95",
"e  c #959595",
"r  c gray60",
"t  c gray73",
"y  c gray57",
"u  c #9F9F9F",
"i  c #6F6F6F",
"p  c #D5D5D5",
"a  c gray77",
"s  c #C0C0C0",
"d  c #7E7E7E",
"f  c gray98",
"g  c gray75",
"h  c gray84",
"j  c #B1B1B1",
"k  c #E1E1E1",
"l  c #DFDFDF",
"z  c gray93",
"x  c gray90",
"c  c gray65",
"v  c gray49",
"b  c gray40",
"n  c #BCBCBC",
"m  c #838383",
"M  c #F3F3F3",
"N  c gray61",
"B  c #939393",
"V  c gray59",
"C  c #979797",
"Z  c gray39",
"A  c #C3C3C3",
"S  c gray45",
"D  c gray",
"F  c gray83",
"G  c gray88",
"H  c #EFEFEF",
"J  c gray89",
"K  c gray92",
"L  c #A4A4A4",
"P  c #686868",
"I  c gray51",
"U  c #9B9B9B",
"Y  c #909090",
"T  c gray82",
"R  c gray76",
"E  c gray50",
"W  c #676767",
"Q  c #B7B7B7",
"!  c gray78",
"~  c #6A6A6A",
"^  c #E9E9E9",
"/  c #A9A9A9",
"(  c gray43",
")  c #C8C8C8",
"_  c #727272",
"`  c #898989",
"'  c #9A9A9A",
"]  c gray56",
"[  c #FBFBFB",
"{  c #6D6D6D",
"}  c #6C6C6C",
"|  c #C6C6C6",
" . c #AAAAAA",
".. c #F6F6F6",
"X. c gray42",
"o. c gray91",
"O. c gray80",
"+. c #777777",
"@. c #888888",
"#. c #A2A2A2",
"$. c #A0A0A0",
"%. c #7B7B7B",
"&. c #D0D0D0",
"*. c #AFAFAF",
"=. c gray97",
"-. c #606060",
";. c #EEEEEE",
":. c gray63",
">. c #818181",
",. c #626262",
/* pixels */
"                . . . . . . . .                 . . . . . . . .                 . . . . . . . .                 . . . . . . . . ",
"                . . . . . . . .                 . . . . . . . .                 . . . . . . . .                 . . . . . . . . ",
"                . . . . . . . .                 . . . . . . . .                 . . . . . . . .                 . . . . . . . . ",
"                . . . . . . . .                 . . . . . . . .                 . . . . . . . .                 . . . . . . . . ",
"                . . . . . . . .                 . . . . . . . .                 . . . . . . . .                 . . . . . . . . ",
"                . . . . . . . .                 . . . . . . . .                 . . . . . . . .                 . . . . . . . . ",
"                . . . . . . . .                 . . . . . . . .                 . . . . . . . .                 . . . . . . . . ",
"                . . . . . . . .                 . . . . . . . .                 . . . . . . . .                 . . . . . . . . ",
". . . . . . . .                 . . . . . . . .                 . . . . . . . .                 . . . . . . . .                 ",
". . . . . . . .                 . . . . . . . .                 . . . . . . . .                 . . . . . . . .                 ",
". . . . . . . .                 . . . . . . . .                 . . . . . . . .                 . . . . . . . .                 ",
". . . . . . . .                 . . . . . . . .                 . . . . . . . .                 . . . . . . . .                 ",
". . . . . . . .                 . . . . . . . .                 . . . . . . . .                 . . . . . . . .                 ",
". . . . . . . .                 . . . . . . . .                 . . . . . . . .                 . . . . . . . .                 ",
". . . . . . . .                 . . . . . . . .                 . . . . . . . .                 . . . . . . . .                 ",
". . . . . . . .                 . . . . . . . .                 . . . . . . . .                 . . . . . . . .                 ",
"                . . . . . . . .                 . . . . . . . .                 . . . . . . . .                 . . . . . . . . ",
"                . . . . . . . .                 . . . . . . . .                 . . . . . . . .                 . . . . . . . . ",
"                . . . . . . . .                 . . . . . . . .                 . . . . . . . .                 . . . . . . . . ",
"                . . . . . . . .   X o o O       . . . . . . + @ o o #           . . . . $ @ @ %                 . . . . . . . . ",
"                . . . . . . . .   & * * =       . . . . . . - * * * ;           . . . . : * * >                 . . . . . . . . ",
"                . . . . . . . .   , * * <       . . . . . . 1 * * * 2           . . . . 3 * * @                 . . . . . . . . ",
"                . . . . . . . .   4 * * * 5     . . . . . 6 7 * 8 * * 6         . . . 9 0 * * q                 . . . . . . . . ",
"                . . . . . . . .     w * * e     . . . . . r * * t * * y         . . . u * * 0 i                 . . . . . . . . ",
". . . . . . . .                 . . p * * a . .           s * * d f * g . . . .       - * * h   . . . . . . . .                 ",
". . . . . . . .                 . . j * * w . .           k * 2 . l * z . . . .       x * * c   . . . . . . . .                 ",
". . . . . . . .                 . . + * * * v .         b 7 * n . = * * O . . .     . 0 * * m   . . . . . . . .                 ",
". . . . . . . .                 . . . M * * N .         y * * B . V * * r . . .     C * * 8 Z   . . . . . . . .                 ",
". . . . . . . .                 . . . p * * A .         s * * S . i 8 * D . . .     a * * F     . . . . . . . .                 ",
". . . . . . . .                 . . . j * * < .         G * H   . . J * K . . .     1 * * L     . . . . . . . .                 ",
". . . . . . . .                 . . . m * * * v       Z 8 * s   . . - * * # . .   P 7 * * I     . . . . . . . .                 ",
". . . . . . . .                 . . . . M * * U       Y * * V   . . N * * C . .   V * * 8 Z     . . . . . . . .                 ",
"                . . . . . . . .         T * * D . . . R * * E .     W 0 * Q     . ! * * h . . .                 . . . . . . . . ",
"                . . . . . . . .         % * * H . . . k * M ~ .       x * ^     . x * * / . . .                 . . . . . . . . ",
"                . . . . . . . .         O * * * v . ( 8 * ) . .       - * * i   _ 7 * * ` . . .                 . . . . . . . . ",
"                . . . . . . . .           < * * U . V * * u . .       ' * * ]   N * * [ { . . .                 . . . . . . . . ",
"                . . . . . . . .           T * * R . = * * I . .       } * * Q   | * * p . . . .                 . . . . . . . . ",
"                . . . . . . . .            .* * H . k * ..X.. .         ^ * o.  x * * / . . . .                 . . . . . . . . ",
"                . . . . . . . .           # * * * E [ * O.. . .         : * * +.7 * * @.. . . .                 . . . . . . . . ",
"                . . . . . . . .             < * * | * * #.. . .         $.* * a * * [ { . . . .                 . . . . . . . . ",
". . . . . . . .                 . . . . . . & * * 8 * * %.      . . . . %.* * 7 * * &.          . . . . . . . .                 ",
". . . . . . . .                 . . . . . . *.* * * * =.-.      . . . . . ;.* * * * :.          . . . . . . . .                 ",
". . . . . . . .                 . . . . . . >.* * * * O.        . . . . . T * * * * d           . . . . . . . .                 ",
". . . . . . . .                 . . . . . . . w * * * $.        . . . . . @ * * * f ,.          . . . . . . . .                 ",
". . . . . . . .                 . . . . . . . .                 . . . . . . . .                 . . . . . . . .                 ",
". . . . . . . .                 . . . . . . . .                 . . . . . . . .                 . . . . . . . .                 ",
". . . . . . . .                 . . . . . . . .                 . . . . . . . .                 . . . . . . . .                 ",
". . . . . . . .                 . . . . . . . .                 . . . . . . . .                 . . . . . . . .                 ",
"                . . . . . . . .                 . . . . . . . .                 . . . . . . . .                 . . . . . . . . ",
"                . . . . . . . .                 . . . . . . . .                 . . . . . . . .                 . . . . . . . . ",
"                . . . . . . . .                 . . . . . . . .                 . . . . . . . .                 . . . . . . . . ",
"                . . . . . . . .                 . . . . . . . .                 . . . . . . . .                 . . . . . . . . ",
"                . . . . . . . .                 . . . . . . . .                 . . . . . . . .                 . . . . . . . . ",
"                . . . . . . . .                 . . . . . . . .                 . . . . . . . .                 . . . . . . . . ",
"                . . . . . . . .                 . . . . . . . .                 . . . . . . . .                 . . . . . . . . ",
"                . . . . . . . .                 . . . . . . . .                 . . . . . . . .                 . . . . . . . . ",
". . . . . . . .                 . . . . . . . .                 . . . . . . . .                 . . . . . . . .                 ",
". . . . . . . .                 . . . . . . . .                 . . . . . . . .                 . . . . . . . .                 ",
". . . . . . . .                 . . . . . . . .                 . . . . . . . .                 . . . . . . . .                 ",
". . . . . . . .                 . . . . . . . .                 . . . . . . . .                 . . . . . . . .                 ",
". . . . . . . .                 . . . . . . . .                 . . . . . . . .                 . . . . . . . .                 ",
". . . . . . . .                 . . . . . . . .                 . . . . . . . .                 . . . . . . . .                 ",
". . . . . . . .                 . . . . . . . .                 . . . . . . . .                 . . . . . . . .                 ",
". . . . . . . .                 . . . . . . . .                 . . . . . . . .                 . . . . . . . .                 "
};
