/* XPM */
static char *checker_east_321689607237[] = {
/* columns rows colors chars-per-pixel */
"32 32 24 1 ",
"  c gray37",
". c DimGray",
"X c gray53",
"o c #8B8B8B",
"O c #838383",
"+ c #7C7C7C",
"@ c #EEEEEE",
"# c white",
"$ c gray90",
"% c gray88",
"& c #808080",
"* c #767676",
"= c #727272",
"- c gray93",
"; c #D8D8D8",
": c #E1E1E1",
"> c #7B7B7B",
", c #B9B9B9",
"< c gray42",
"1 c #DADADA",
"2 c #EAEAEA",
"3 c #A7A7A7",
"4 c gray68",
"5 c #606060",
/* pixels */
"    ....    ....    ....    ....",
"    ....    ....    ....    ....",
"    ....    ....    ....    ....",
"    ....    ....    ....    ....",
"....    ....    ....    ....    ",
"....    ....    ....    ....    ",
"....    ....    ....    ....    ",
"....    ....    ....    ....    ",
"    ....    ....    ....    ....",
"    ....    XoooOOO+....    ....",
"    ....    @######$....    ....",
"    ....    @%&&***=....    ....",
"....    ....-;  ....    ....    ",
"....    ....-;  ....    ....    ",
"....    ....-:OOooo>    ....    ",
"....    ....-######,    ....    ",
"    ....    @%&&***<....    ....",
"    ....    @1..    ....    ....",
"    ....    @1..    ....    ....",
"    ....    @1..    ....    ....",
"....    ....-2334444    ....    ",
"....    ....-#######5   ....    ",
"....    ....    ....    ....    ",
"....    ....    ....    ....    ",
"    ....    ....    ....    ....",
"    ....    ....    ....    ....",
"    ....    ....    ....    ....",
"    ....    ....    ....    ....",
"....    ....    ....    ....    ",
"....    ....    ....    ....    ",
"....    ....    ....    ....    ",
"....    ....    ....    ....    "
};
